<?xml version="1.0" encoding="UTF-8"?>
<svg version="1.1" viewBox="0 0 2048 532" width="1280" height="1280" xmlns="http://www.w3.org/2000/svg">
<path transform="translate(813,3)" d="m0 0h25l11 3 12 6 8 7 6 10 3 9 1 7v14l-3 11-6 10-8 8-8 5-14 5 10 9 8 7 9 9 9 14 5 12 3 13v23l-3 13-7 14-7 9-6 7-10 8-14 8-11 5-17 5-13 2h-18l-18-3-15-6-9-7-9-9-4-7v-2h-2l-2 4-10 13-16 16-13 10-15 9-10 5-11 30-7 12-9 10-8 6-12 5-9 2-18 1-13-2-12-5-9-6-8-8-6-12-1-5v-12l3-7 5-6 12-7 19-6 50-11 2-1 5-22v-3l-7 8-11 7-10 4-5 1h-22l-13-3-10-5-7-6-5-7-12 13-12 12-15 11-14 8-8 4-10 28-7 13-8 10-10 7-12 5-9 2-18 1-16-3-14-7-10-9-6-9-3-11v-10l4-10 7-6 12-6 20-6 42-9 6-2 5-21v-4l-7 8-9 6-12 5-5 1h-22l-15-4-9-5-6-5-4-7-8 6-7 6-12 7-13 4-7 1h-10l-10-3-11-8-9-10-9-15-10-21-6-15-3 53-2 8-5 5-9 6-8 3-10 1-7-3-4-6-3-12v-34l3-33 6-36 10-43 9-30 10-24 8-16 7-11 5-4 2-1h9l6 4 8 10 6 12v17l-5 13-6 11-11 16-8 12-2 11-1 14 9-13 10-9 14-7 7-2h23l13 4 9 6 7 10 3 11v15l-4 11-7 9-8 7-12 7-15 5-13 1 7 18 6 9 6 5 5 2h14l12-6 13-12 9-11 6-8 9-73 2-6 10-5 10-2h11l6 3 4 5 3 10 1 19-3 16-8 30-4 21v13l2 4 8 3h7l10-3 6-5 8-14 5-15 9-36 13-42 4-8 4-4 3-1h8l9 6 7 10 5 10 1 3v10l-5 26-10 39-12 41v3l15-13 21-21 18-22 3-20 7-57 3-5 9-4 10-2h10l7 3 5 7 2 9v25l-10 38-4 21v14l3 5 6 2h8l10-3 6-5 7-12 5-14 11-43 12-38 5-10 6-3h8l6 4 8 9 7 13 1 4-1 14-6 29-13 48-8 27 8-6 13-12 14-14 9-11 4-5 3-15 5-12 9-14 10-10 8-4 4-1h9l6 3 1 2v10l-5 23-1 8v10l2 10 4 7 5 4 5 2h19l12-4 8-6 5-8 2-6v-19l-4-11-9-12-11-12-8-7-10-9-9-10-7-11-5-11-3-14v-11l3-16 5-12 8-10 8-7 14-8zm6 32-10 3-8 7-1 4 5 12 7 11 11 12 5 5h2l10-13 6-12 2-10v-7l-4-6-6-4-7-2zm-534 95-8 4-9 9-7 10-9 16v3l17-2 13-4 9-5 7-6 4-7 1-7-2-6-4-4-3-1zm146 162-39 6-6 3-1 1v6l6 7 10 4h10l8-4 7-7 8-13v-3zm178 0-39 6-6 3-1 1v7l5 5 7 4 4 1h10l8-4 9-10 6-11v-2z" fill="#77DEFF"/>
<path transform="translate(1033,88)" d="m0 0h8l9 6 6 8 7 14v12l-5 26-9 35-13 45 1 1 11-9 26-26 9-11 7-8 2-11 8-65 2-6 10-5 11-2h10l6 3 4 5 3 9 1 11v10l-3 15-8 30-4 22v12l2 4 8 3h7l10-3 6-5 8-14 5-15 10-39 9-29 6-17 5-5 3-1h8l9 6 9 13 4 10v10l-6 31-12 45-9 31 1 1 13-11 22-22 9-11 9-10 2-15 3-19 5-17 6-15 8-15 7-9 5-3h7l7 4 7 8 4 8v2l15-10 10-4 4-1h24l11 3 8 4 5 4 6 9 3 10v22l-3 19-10 41v6l1 2h6l9-6 17-16 3-3 6-25 7-17 9-15 11-13 10-9 13-8 13-6 14-3h12l10 3 7 6 2 4 1 9-2 12-6 9-5 3-9-1-11-7h-10l-8 7-8 16-4 15-2 19v8l3 9 5 5 8 4 4 1h14l10-4 13-10 18-18 6-7 6-2 4 3 1 3v9l-3 12-4 10-10 14-9 9-10 7-15 8-14 4-17 2-16-1-13-4-10-5-12-11-4-7v-2l-8 7-16 9-16 8-10 4-4 1h-7l-9-3-8-7-5-12-2-15v-13l2-19 7-32 1-7v-8l-2-6-6-2h-9l-10 5-7 7-8 13-8 17-5 17v15l6 27-1 8-5 6-14 8-13 5h-7l-7-6-3-11-2-19-13 16-9 10-11 9-12 9-17 10-6 2-3 12-7 18-8 14-8 9-10 6-10 4-9 2-18 1-16-3-14-7-10-9-6-9-3-11v-10l3-8 4-5 11-7 21-7 50-11h3l1-8 3-14v-3l-8 8-9 6-11 4-5 1h-22l-15-4-9-5-5-4-5-8-5 5-14 15-11 9-13 9-18 10h-2l-2 9-7 19-6 12-8 10-9 7-10 5-13 3-17 1-14-2-12-5-10-7-8-9-4-8-2-9v-8l3-9 4-5 9-6 16-6 25-6 32-7h3l2-12 3-14-9 9-11 7-14 4h-21l-16-4-9-5-8-8-4-10-1-5v-15l4-13 6-14 9-72 2-7 10-5 11-2h10l6 3 5 6 2 7 1 10v13l-3 15-8 30-4 22v10l2 6 8 2h7l10-3 7-6 9-17 13-50 12-38 4-9 5-4zm-57 204-38 6-8 4v6l6 7 10 4h10l8-4 8-8 8-14zm178 0-39 6-6 3-1 1v6l6 7 10 4h10l8-4 7-7 8-13 1-3z" fill="#77DEFF"/>
<path transform="translate(1864,88)" d="m0 0h22l17 4 12 5 12 8 10 9 8 9 9 16 5 15 2 15v9l-2 14-3 10 1 4 9 14 6 15 3 16v16l-3 16-5 13-7 12-8 10-11 10-15 9-18 6-16 2h-121l-18-2-18-5-19-9-14-10-16-16-9-13-8-16-6-18-2-12v-27l3-16 7-19 9-16 9-11 6-7 11-9 14-9 15-7 13-4 21-3h10l18 2 11 3 2-4 10-10 15-10 15-6zm7 28-12 2-12 5-11 8-1 3 14 10 14 14 11 16 3 1 15-1 16 2 15 5 8 3 1-3v-15l-3-12-7-14-9-10-14-9-13-4-7-1zm-107 29-17 4-12 5-12 8-10 9-8 9-8 14-5 13-3 17v13l3 17 5 13 6 11 8 10 9 9 14 9 13 6 12 3 7 1h131l15-4 12-7 11-11 8-14 3-11v-19l-3-11-6-12-9-10-7-6-12-6-12-3h-16l-12 3-10 5-7-18-9-14-11-12-12-9-17-8-11-3-7-1z" fill="#FFE964"/>
<path transform="translate(98,3)" d="m0 0h25l12 3 13 7 7 7 5 8 3 9 1 6v18l-4 12-8 11-11 8-10 4-6 2 21 18 9 11 7 11 5 13 2 9 1 18-2 14-5 13-7 12-12 13-11 8-12 7-19 7-13 3-8 1h-18l-18-3-13-5-11-8-8-8-6-10-4-12-1-6v-22l5-17 8-14 11-12 10-6 4-1h9l6 3 1 1v13l-5 22v23l4 10 6 5 5 2h19l10-3 9-6 4-5 4-9 1-7v-8l-3-12-6-10-9-11-9-9-11-9-8-8-10-13-7-14-3-11v-22l3-12 7-14 8-9 13-9 12-5zm6 32-11 4-8 7 3 10 6 12 12 14 7 7 4-2 9-12 5-11 2-8v-10l-6-7-11-4z" fill="#77DEFF"/>
<path transform="translate(793,436)" d="m0 0h10l8 4 5 10 11 35 1 1 12-46 2-4h5l4 10 14 40 3-7 10-34v-3l-7-2v-4h25l1 4-1 1-9 2-3 5-18 58-1 1h-5l-5-12-12-36v-3h-2l-2 11-11 40h-6l-20-60-2-4-8-4z" fill="#41E059"/>
<path transform="translate(1056,426)" d="m0 0h6l1 36 8-6 3-1h12l6 4 4 5 1 5 1 32 7 2-1 4h-24l-2-4 7-2v-35l-5-4h-9l-7 4-1 2v32l7 3-1 4h-24l-1-4 7-3v-66l-7-1v-4z" fill="#41E059"/>
<path transform="translate(1424,426)" d="m0 0h5l1 73 2 2 8 3-1 2-5 1h-15l-1-5-8 5-9 1-9-3-6-5-5-9-1-5v-9l4-11 8-8 7-3h13l6 2v-23l-7-1 1-4zm-22 33-7 6-3 8v16l4 8 4 4 3 1h9l7-5v-31l-5-6-2-1z" fill="#41E059"/>
<path transform="translate(1238,436)" d="m0 0h29l1 4-8 3-1 1v46l4 8 7 3h11l7-3 4-4 1-3v-46l-2-3-7-1-1-4 1-1h27l1 4-1 1-8 1-1 2-1 9-1 40-4 7-8 6-7 2h-16l-8-3-6-5-4-8-1-46-2-4-7-2z" fill="#41E059"/>
<path transform="translate(1328,454)" d="m0 0h3l1 6 11-5h11l8 4 6 8 3 9v10l-3 9-7 8-8 4-10 1-8-2-2-1v18l7 3v3h-26v-4l6-2 1-5v-55l-7-1v-4zm13 6-8 4-1 1v32l5 5 4 2h7l6-4 4-6 2-14-2-10-6-8-6-2z" fill="#41E059"/>
<path transform="translate(2e3 159)" d="m0 0h35l6 3 4 5 1 2v9l-4 6-5 3-4 1h-31l-7-3-4-4-2-5 1-8 4-6z" fill="#FFE964"/>
<path transform="translate(1983,48)" d="m0 0 9 1 6 5 2 4v9l-4 6-22 22-5 2-9-1-7-6-1-2v-10l4-6 22-22z" fill="#FFE964"/>
<path transform="translate(1761,48)" d="m0 0 9 1 8 7 18 18 2 4v9l-4 6-4 3-9 1-6-3-23-23-2-4v-10l6-7z" fill="#FFE964"/>
<path transform="translate(1870,3)" d="m0 0h10l6 4 3 5v37l-4 7-6 3h-9l-6-4-3-5v-38l4-6z" fill="#FFE964"/>
<path transform="translate(677,454)" d="m0 0 4 1 1 7 8-6 3-1h12l6 4 4 6 1 33 1 3 7 2-2 4h-24l-1-4 7-1v-35l-3-4-3-1h-8l-7 4-1 1v33l7 3-1 4h-24l-2-3 7-3 1-3v-32l-1-3-6-1-1-3 8-3z" fill="#41E059"/>
<path transform="translate(465,454)" d="m0 0 3 1 1 7 8-6 3-1h12l6 4 4 6 1 31 1 5 7 2-2 4h-24l-1-4 7-2v-34l-5-5h-9l-7 4-1 2v32l7 3-1 4h-24l-1-4 6-2 1-2v-34l-1-2-6-1v-4z" fill="#41E059"/>
<path transform="translate(622,455)" d="m0 0h15l7 3 5 6 1 5 1 31 1 2 5 2-1 3-7 1-6-3-4-4-5 4-10 3-8-1-6-4-3-7 2-9 5-5 9-3 8-1h9l-1-12-2-5-4-2h-8l-4 4 1 7 1 3-2 1h-6l-3-4-1-5 2-5 6-4zm13 26-9 2-6 4-1 2v9l2 3 7 1 8-4 3-4 1-4v-9z" fill="#41E059"/>
<path transform="translate(963,455)" d="m0 0h14l8 3 4 5 1 2 1 34 2 3 5 2-2 3-6 1-7-3-3-5-7 6-8 2-9-1-6-5-2-4v-8l4-6 8-4 12-2h8l-1-14-5-5h-8l-5 5 1 5 2 3-2 2h-6l-4-5v-6l5-6zm13 26-12 3-4 4-1 9 3 4 6 1 7-3 4-5 1-2v-11z" fill="#41E059"/>
<path transform="translate(1458,455)" d="m0 0h15l7 3 5 5 1 3 1 33 2 3 4 2-1 3-6 1-7-3-2-5-9 6-7 2-9-1-7-6-1-2v-10l5-6 11-4 7-1h9l-1-14-3-4-3-1h-8l-3 2-1 6 3 5-2 2h-6l-4-4v-8l5-5zm13 26-11 3-5 6v8l5 4 8-1 6-5 2-4v-11z" fill="#41E059"/>
<path transform="translate(1129,455)" d="m0 0h13l7 3 6 7 2 7-1 6-5 2h-29l3 13 5 6 4 2h10l7-4 3-4 4 1-4 7-7 5-9 2-10-1-8-4-6-7-3-8v-14l5-10 8-7zm2 4-6 5-3 8 1 4 21-1 2-2-1-9-5-5z" fill="#41E059"/>
<path transform="translate(911,455)" d="m0 0h14l8 4 5 8 1 9-2 3-4 1h-29l3 12 4 6 6 3h10l6-4 3-4 4 1-2 5-7 6-10 3-11-1-10-6-6-10-1-4v-11l4-10 6-7zm2 4-6 5-3 10 1 2 21-1 2-1v-8l-4-6-2-1z" fill="#41E059"/>
<path transform="translate(1560,455)" d="m0 0h13l8 4 4 5 3 9-2 5-4 2h-29l2 11 4 7 6 3h10l5-3 5-5h3l-1 5-5 5-7 4-10 1-9-2-6-4-5-6-3-7-1-10 3-10 4-6 7-6zm2 4-5 3-3 5-1 9 22-1 2-2-1-9-5-5z" fill="#41E059"/>
<path transform="translate(411,436)" d="m0 0h30l1 3-2 2-7 1v57l3 2 6 2-2 4h-28l-1-5 7-2 2-5v-47l-2-6-7-2z" fill="#41E059"/>
<path transform="translate(532,455)" d="m0 0h13l8 4 2 4-1 7-2 2h-7v-4l1-5-3-3-8-1-6 3-1 1v7l4 3 18 7 6 5 1 3v7l-3 6-5 4-10 3-12-1-8-4-2-3v-8l3-3h7v4 8l11 2 7-2 3-5-2-6-9-4-13-5-5-6v-10l4-6z" fill="#41E059"/>
<path transform="translate(1612,455)" d="m0 0h13l8 4 2 3v6l-3 4h-7l-1-3h2v-7l-7-3-9 2-2 3 1 7 9 4 13 5 5 5 1 2v9l-4 6-8 5-11 1-9-2-6-4-2-3v-6l3-4h7v4 6l4 3 8 1 7-2 2-4-1-6-4-3-17-6-5-4-2-4v-9l6-7z" fill="#41E059"/>
<path transform="translate(1181,454)" d="m0 0 3 1 1 7 8-6 2-1h8l4 5v7l-3 4-5 1-2-1v-8l-4-1-8 5v33l7 3-1 4h-24l-1-4 6-2 1-2v-34l-1-2-6-1-1-3 9-3z" fill="#41E059"/>
<path transform="translate(578,442)" d="m0 0h4v14l13-1 1 5-1 1h-12v34l2 6 6 1 7-1v4l-6 3h-11l-7-6-2-6v-36h-7v-4l8-4z" fill="#41E059"/>
<path transform="translate(741,442)" d="m0 0h4v14l13-1 1 5-1 1h-12v35l2 5 6 1 7-1 1 3-4 3-3 1h-11l-7-6-2-6v-36h-7v-4l8-4z" fill="#41E059"/>
<path transform="translate(1016,442)" d="m0 0 4 1-1 13 14-1 1 3-2 3h-7l-5-1 1 38 4 4 10-1 1 4-7 3h-10l-6-4-3-6v-38h-8v-4l8-4 3-5z" fill="#41E059"/>
<path transform="translate(1511,442)" d="m0 0 5 1-1 13 14-1v5l-1 1h-7l-5-1 1 39 1 2 6 1 7-1 1 4-7 3h-10l-5-3-4-6-1-38-7-1v-4l8-4z" fill="#41E059"/>
</svg>
