<?xml version="1.0" encoding="UTF-8"?>
<svg version="1.1" viewBox="0 0 2048 517" width="1280" height="1280" xmlns="http://www.w3.org/2000/svg">
<path transform="translate(822,1)" d="m0 0 16 1 12 3 11 6 8 7 6 10 3 9 1 7v14l-4 13-6 9-7 7-13 7-9 3 10 9 8 7 9 9 9 14 5 12 3 13v23l-4 15-6 12-7 9-7 8-12 9-10 6-15 6-19 5-7 1h-20l-17-3-13-5-9-6-8-7-7-11v-2h-2l-2 4-10 13-17 17-15 11-21 12-2 1-8 24-8 16-8 10-10 7-11 5-17 3h-14l-14-3-14-7-9-8-6-9-3-10v-14l4-8 7-6 12-6 20-6 42-9 6-2 5-25-7 8-11 7-10 4-5 1h-23l-15-4-10-6-7-8-1-4h-2l-2 4-7 8-14 14-15 11-17 10-6 2-3 11-7 19-6 11-8 10-8 6-10 5-12 3-8 1h-14l-14-3-14-7-8-7-6-9-4-11v-13l4-9 7-6 12-6 21-6 41-9 6-2 5-22v-3l-7 8-11 7-10 4-5 1h-22l-16-4-11-7-6-7-1-4-8 7-7 6-12 7-13 4-6 1h-12l-11-4-9-7-10-11-11-19-13-30-2 28-1 21-2 11-7 7-12 6-8 2-9-1-5-4-4-9-1-5v-40l3-30 6-36 9-39 8-27 8-22 13-27 8-10 4-3 7-1 8 4 7 8 6 10 2 6v14l-4 13-9 16-13 18-5 9-2 16v7l7-11 9-9 10-6 9-4 18-2 15 2 12 5 6 5 6 10 3 12v12l-4 12-8 10-12 9-12 6-16 4h-7l7 19 6 8 6 5 4 2h15l10-5 13-11 7-8 9-11 2-12 8-65 3-5 12-5 7-1h11l7 4 4 6 2 9v25l-10 38-4 21v15l5 5 4 1h9l9-3 6-5 8-14 5-16 10-39 11-35 5-12 6-4h9l9 6 7 10 5 10 1 4v8l-6 31-10 38-12 41 8-6 12-11 16-16 9-11 9-10 2-7 9-74 5-4 10-4 7-1h11l7 4 4 7 2 8v24l-12 48-2 11v16l5 5 4 1h8l10-3 5-4 6-10 5-11 5-19 10-37 9-29 4-9 5-5 2-1h9l6 4 8 9 7 14 1 9-3 19-12 48-13 45 8-6 15-14 11-11 7-8 6-7 4-18 8-17 8-10 5-5 8-6 6-2h10l6 3 1 2v9l-3 15-3 16v12l3 12 6 7 7 3 9 1 14-2 10-4 7-6 5-10 1-4v-18l-4-10-7-11-12-13-8-7-10-9-7-7-9-13-5-10-4-16v-13l3-16 7-14 9-10 11-8 13-6 8-2zm-4 33-11 4-6 5-1 5 5 12 7 11 11 12 6 5 7-7 8-13 3-9 1-12-3-6-5-4-8-3zm-566 92 1 2zm33 3-8 4-10 10-10 15-6 13 13-1 16-4 11-6 6-5 4-6 1-3v-10l-4-5-5-2zm147 162-39 6-7 3-1 1v7l4 5 8 4 3 1h11l8-4 7-7 8-14v-2zm178 0-39 6-7 3-2 5 3 6 7 5 6 2h11l8-4 9-10 6-11v-2z" fill="#76DEFE"/>
<path transform="translate(1033,87)" d="m0 0h8l8 5 7 9 7 14v12l-5 26-10 39-12 41 1 1 11-9 7-7 7-6 7-8 11-12 9-11 2-4 9-73 2-6 10-5 10-2h11l6 3 4 5 3 9 1 10v11l-3 15-8 31-4 21v12l2 4 7 3h9l9-3 7-6 8-15 4-13 10-39 11-35 4-11 5-5 3-1h8l8 5 7 9 6 11 1 4v11l-5 26-11 42-11 38 1 1 11-9 25-25 9-11 8-9 1-3 2-19 4-20 6-17 8-16 6-10 5-6 4-2h8l6 4 7 8 5 9 4-2 8-6 8-4 8-2 14-1 15 2 11 4 9 7 6 10 2 7v24l-3 18-9 36-1 11 1 2h6l9-6 15-14 6-7 3-16 5-15 8-16 9-13 11-12 12-9 15-8 13-4 6-1h12l9 2 7 5 3 6 1 4-1 14-5 10-6 5h-7l-6-3-8-5h-10l-8 7-8 16-4 16-1 7v23l3 6 7 6 9 3h15l9-4 11-8 8-7 7-8 12-12 5-2 4 3 1 3v10l-4 15-6 11-8 10-9 9-14 9-10 5-13 4-16 2h-11l-12-2-13-5-11-8-8-9-2-6h-2l-2 4-10 7-25 13-14 5h-9l-9-3-7-7-4-9-2-9-1-19 2-22 8-38v-9l-3-6-5-2h-9l-10 5-9 10-9 16-6 14-4 14v14l6 27v7l-4 6-8 6-14 7-6 2h-8l-7-6-3-11-2-19-11 14-12 13-13 11-15 10-15 8h-2l-2 9-7 19-6 12-8 10-7 6-12 6-11 3-9 1h-13l-15-3-12-6-10-9-6-8-4-13v-10l3-8 4-5 10-6 12-5 24-6 37-8h2l1-8 4-18-10 10-10 6-13 4h-23l-13-3-11-6-5-4-5-8-5 5-12 13-14 12-15 10-15 8h-2l-2 9-8 22-7 12-9 10-11 7-16 5-9 1h-13l-15-3-12-6-10-9-4-5-4-8-2-9v-8l3-9 5-5 9-6 12-5 24-6 37-8h2l2-12 3-14-10 10-10 6-13 4h-23l-13-3-11-6-5-4-6-10-2-8v-16l4-14 6-13 9-72 2-7 10-5 10-2h11l6 3 5 6 2 7 1 10v13l-3 14-10 40-2 13v10l2 5 7 3h9l9-3 7-6 9-17 13-50 12-38 4-9 4-4zm-56 204-39 6-7 3-1 7 6 7 9 4h12l10-6 9-12 4-9zm178 0-39 6-8 4v6l6 7 9 4h12l8-5 7-7 8-14z" fill="#76DEFE"/>
<path transform="translate(1864,87)" d="m0 0h23l16 4 12 5 11 7 10 9 7 7 7 11 6 12 4 15 1 7v17l-3 15-2 8 7 9 8 17 4 17v22l-4 17-6 14-9 13-12 12-14 9-11 5-15 4-8 1h-129l-19-3-18-6-17-9-12-9-15-15-9-13-8-16-5-15-3-17v-23l3-17 5-15 8-16 10-14 15-15 14-10 19-9 13-4 21-3h12l21 3 6 1 9-10 10-8 10-6 13-5zm7 28-12 2-12 5-9 7-3 2v2l13 9 10 9 11 14 6 9 17-1 16 2 13 4 10 4 1-2v-18l-4-13-5-10-11-12-11-7-10-4-11-2zm-106 29-15 3-12 5-11 6-11 9-10 11-9 15-6 18-2 16 1 16 4 16 8 16 9 12 9 9 15 10 15 6 14 3h134l12-3 13-7 10-9 7-10 5-13 2-13-1-13-4-12-6-11-7-8-13-9-10-4-9-2h-15l-12 3-12 6-1-7-7-16-7-10-9-10-8-7-14-8-12-5-14-3z" fill="#FFE964"/>
<path transform="translate(107,1)" d="m0 0 17 1 13 4 9 5 9 8 7 14 2 11v15l-3 10-6 10-8 8-13 7-9 3 15 13 12 12 9 14 5 12 3 13v23l-3 13-7 14-7 9-7 8-12 9-12 7-19 7-20 4h-20l-17-3-13-5-9-6-7-6-7-10-5-11-2-9-1-17 3-16 5-12 6-10 9-10 7-6 8-3h10l6 3 1 2v10l-5 22-1 9v11l3 12 6 7 7 3 9 1 14-2 10-4 7-6 5-10 1-3v-19l-4-11-9-12-10-11-8-7-12-11-8-9-7-11-5-11-3-14v-11l3-16 5-12 7-9 10-9 15-8 11-3zm-4 33-11 4-5 4-2 3 1 6 8 16 11 13 8 8 7-6 9-14 3-9 1-13-4-6-6-4-6-2z" fill="#76DEFE"/>
<path transform="translate(936,426)" d="m0 0h8l16 50 1 1 16-50 1-1h6l3 7 14 44 4-10 12-39 1-2h8l-2 9-18 56-1 2h-7l-3-7-13-42v-3h-2l-2 10-13 41-1 1h-7l-12-36-9-28z" fill="#76DEFE"/>
<path transform="translate(2e3 158)" d="m0 0h34l8 4 3 5 1 7-3 7-6 5-4 1h-32l-7-3-5-6v-11l6-7z" fill="#FFE964"/>
<path transform="translate(1983,47)" d="m0 0h7l7 4 3 5 1 7-3 7-24 24-5 2-9-1-6-5-2-4v-9l4-6 22-22z" fill="#FFE964"/>
<path transform="translate(1761,47)" d="m0 0h7l6 4 23 23 1 2v10l-4 6-4 3-8 1-7-3-23-23-2-4v-9l4-6 4-3z" fill="#FFE964"/>
<path transform="translate(1874,1)" d="m0 0 9 2 5 6 1 2v38l-4 6-6 3h-8l-6-4-4-6v-36l4-7 5-3z" fill="#FFE964"/>
<path transform="translate(419,425)" d="m0 0h16l12 5 4 3-2 4-4 2-8-5-3-1h-14l-8 3-7 7-4 11v11l4 11 4 5 10 5 8 1 10-2 8-6 5-9 2-7h-25v-6h32v9l-3 10-5 8-7 6-10 4h-16l-10-4-8-7-5-7-3-10v-12l3-10 6-9 9-7z" fill="#76DEFE"/>
<path transform="translate(1344,426)" d="m0 0h8l1 45 4 9 6 5 2 1h14l6-4 4-5 2-6 1-45h8v45l-4 11-7 8-9 4h-16l-9-4-7-8-4-11z" fill="#76DEFE"/>
<path transform="translate(1415,448)" d="m0 0h5l2 5 9-5h14l8 4 6 7 2 6v12l-4 8-5 5-5 3-4 1h-10l-9-4-3-2v27h-7v-66zm19 6-8 4-4 6-1 9 3 8 6 5 2 1h11l6-4 3-3 2-7-1-9-4-6-7-4z" fill="#76DEFE"/>
<path transform="translate(1508,426)" d="m0 0h7v67h-6l-2-5-5 4-6 2h-10l-8-3-8-9-2-6v-10l3-8 5-6 8-4h14l8 4 1 1zm-20 28-6 3-5 6-2 9 3 9 6 5 2 1h11l7-4 4-8v-9l-3-6-5-4-4-2z" fill="#76DEFE"/>
<path transform="translate(604,425)" d="m0 0h16l10 4 7 5-5 6-10-6-3-1h-14l-9 4-7 8-3 9v11l3 9 7 8 8 4 9 1 9-2 10-6 5 6-10 7-7 2h-17l-10-4-10-9-5-11-1-4v-13l4-11 6-8 5-4 8-4z" fill="#76DEFE"/>
<path transform="translate(482,448)" d="m0 0h14l8 5 5 6 2 5 1 10h-38l5 8 4 3 3 1h12l8-4 3 6-7 4-6 2h-11l-9-4-8-9-2-7v-8l3-8 5-6zm4 6-8 4-4 7v3h31l-3-8-6-5z" fill="#76DEFE"/>
<path transform="translate(1103,448)" d="m0 0h14l8 5 6 8 2 13h-38l5 8 4 3 3 1h12l6-3 4 2 1 3-9 5-4 1h-11l-9-4-5-5-4-7-1-4v-8l3-8 5-6zm4 6-8 4-4 7v3h31l-3-8-6-5z" fill="#76DEFE"/>
<path transform="translate(1626,448)" d="m0 0h14l6 3 5 5 4 7 1 11h-37l3 7 5 4 3 1h12l6-3h3l2 5-6 4-7 2h-10l-10-4-7-8-3-10 1-9 6-10zm4 6-6 3-5 6-1 5h31l-2-7-7-6-3-1z" fill="#76DEFE"/>
<path transform="translate(787,448)" d="m0 0h14l8 5 5 6 2 6 1 9h-38l5 8 6 4h13l6-3 4 2 1 3-9 5-4 1h-11l-9-4-5-5-3-4-2-6v-9l4-10 7-6zm4 6-8 4-4 7v3h31l-3-8-6-5z" fill="#76DEFE"/>
<path transform="translate(1246,448)" d="m0 0h14l8 5 4 5 3 7 1 9h-38l4 7v2l5 2 2 1h13l6-3 3 1 2 4-9 5-4 1h-11l-9-4-5-5-4-6-1-4v-10l5-10 8-6zm4 6-8 4-4 7v3h31l-3-8-6-5z" fill="#76DEFE"/>
<path transform="translate(1179,426)" d="m0 0h7l1 27 5-4 3-1h14l6 4 4 5 2 8v28h-8l-1-30-4-6-5-2h-7l-6 2-2 5-1 3-1 28h-7z" fill="#76DEFE"/>
<path transform="translate(1036,426)" d="m0 0h7v28h2v-2l7-4h14l6 4 4 5 2 6v30h-7l-1-1-1-29-4-6-4-2h-8l-5 3-3 4-1 4-1 27h-7z" fill="#76DEFE"/>
<path transform="translate(1539,448)" d="m0 0h14l7 4 4 6 1 3v32h-6v-5l-8 5-3 1h-9l-8-4-4-6v-9l4-6 7-4 9-1 9 2 2 1-3-8-4-3-9-1-8 3-2 1-2-4 1-4zm2 23-5 3-1 2v7l5 4h10l5-3 3-6v-4l-6-3z" fill="#76DEFE"/>
<path transform="translate(648,448)" d="m0 0 7 1 1 29 4 6 3 2h10l6-4 2-5 1-28 3-1 5 1v43l-1 1h-6l-1-5-7 5-3 1h-10l-7-3-6-7-1-3z" fill="#76DEFE"/>
<path transform="translate(827,448)" d="m0 0 6 1 1 5 5-4 4-2h14l7 4 4 7 1 4v30h-8l-1-31-2-4-6-3-10 1-5 5-2 4-1 28h-7z" fill="#76DEFE"/>
<path transform="translate(886,437)" d="m0 0h7v11h13v7h-13l1 27 3 4h10l1 6-5 2h-8l-5-3-4-5-1-9v-18l1-4h-8v-7h8z" fill="#76DEFE"/>
<path transform="translate(1583,437)" d="m0 0h6v11h13l1 1v6h-14l1 25 2 5 2 1h9l1 6-4 2h-9l-6-4-3-6v-29h-8v-6l4-1h3l1-10z" fill="#76DEFE"/>
<path transform="translate(1147,437)" d="m0 0h7v11h13v7h-13l1 27 3 4h10l1 6-5 2h-8l-6-4-3-5v-30h-8v-7h8z" fill="#76DEFE"/>
<path transform="translate(526,437)" d="m0 0h7v11h13l1 2-1 5h-13l1 27 3 4h10l1 6-5 2h-8l-6-4-3-5v-30h-8v-7h7z" fill="#76DEFE"/>
<path transform="translate(704,448)" d="m0 0h5l2 7 7-6 2-1h11v6l-12 2-5 5-2 4-1 28h-8v-44z" fill="#76DEFE"/>
<path transform="translate(739,448)" d="m0 0h6l2 7 5-5 4-2h11l-1 6-11 2-5 4-3 9-1 24h-7z" fill="#76DEFE"/>
<path transform="translate(1286,448)" d="m0 0h6v8h2l2-4 7-4h11l-1 6-9 1-6 4-3 4-1 4-1 26h-7z" fill="#76DEFE"/>
</svg>
